<svg width="12" height="12" viewBox="0 0 12 12" fill="none" xmlns="http://www.w3.org/2000/svg">
    <path d="M9.77295 5.64799C9.72069 5.70043 9.65859 5.74204 9.59022 5.77043C9.52185 5.79882 9.44854 5.81343 9.37451 5.81343C9.30048 5.81343 9.22717 5.79882 9.1588 5.77043C9.09043 5.74204 9.02833 5.70043 8.97607 5.64799L6.56248 3.23439V10.125C6.56248 10.2742 6.50322 10.4173 6.39773 10.5228C6.29224 10.6283 6.14916 10.6875 5.99998 10.6875C5.8508 10.6875 5.70772 10.6283 5.60223 10.5228C5.49674 10.4173 5.43748 10.2742 5.43748 10.125V3.23439L3.02295 5.64799C2.91728 5.75366 2.77395 5.81303 2.62451 5.81303C2.47507 5.81303 2.33175 5.75366 2.22607 5.64799C2.1204 5.54232 2.06104 5.39899 2.06104 5.24955C2.06104 5.10011 2.1204 4.95679 2.22607 4.85111L5.60107 1.47611C5.65333 1.42367 5.71543 1.38206 5.7838 1.35367C5.85217 1.32528 5.92548 1.31067 5.99951 1.31067C6.07354 1.31067 6.14685 1.32528 6.21522 1.35367C6.28359 1.38206 6.34569 1.42367 6.39795 1.47611L9.77295 4.85111C9.82539 4.90337 9.867 4.96547 9.89539 5.03384C9.92378 5.10221 9.93839 5.17552 9.93839 5.24955C9.93839 5.32358 9.92378 5.39689 9.89539 5.46526C9.867 5.53363 9.82539 5.59573 9.77295 5.64799Z" fill="#F79009"/>
</svg>