<svg width="20" height="20" viewBox="0 0 20 20" fill="none" xmlns="http://www.w3.org/2000/svg">
    <path d="M16.25 2.375H14.375V1.75C14.375 1.58424 14.3092 1.42527 14.1919 1.30806C14.0747 1.19085 13.9158 1.125 13.75 1.125C13.5842 1.125 13.4253 1.19085 13.3081 1.30806C13.1908 1.42527 13.125 1.58424 13.125 1.75V2.375H6.875V1.75C6.875 1.58424 6.80915 1.42527 6.69194 1.30806C6.57473 1.19085 6.41576 1.125 6.25 1.125C6.08424 1.125 5.92527 1.19085 5.80806 1.30806C5.69085 1.42527 5.625 1.58424 5.625 1.75V2.375H3.75C3.41848 2.375 3.10054 2.5067 2.86612 2.74112C2.6317 2.97554 2.5 3.29348 2.5 3.625V16.125C2.5 16.4565 2.6317 16.7745 2.86612 17.0089C3.10054 17.2433 3.41848 17.375 3.75 17.375H16.25C16.5815 17.375 16.8995 17.2433 17.1339 17.0089C17.3683 16.7745 17.5 16.4565 17.5 16.125V3.625C17.5 3.29348 17.3683 2.97554 17.1339 2.74112C16.8995 2.5067 16.5815 2.375 16.25 2.375ZM5.625 3.625V4.25C5.625 4.41576 5.69085 4.57473 5.80806 4.69194C5.92527 4.80915 6.08424 4.875 6.25 4.875C6.41576 4.875 6.57473 4.80915 6.69194 4.69194C6.80915 4.57473 6.875 4.41576 6.875 4.25V3.625H13.125V4.25C13.125 4.41576 13.1908 4.57473 13.3081 4.69194C13.4253 4.80915 13.5842 4.875 13.75 4.875C13.9158 4.875 14.0747 4.80915 14.1919 4.69194C14.3092 4.57473 14.375 4.41576 14.375 4.25V3.625H16.25V6.125H3.75V3.625H5.625ZM16.25 16.125H3.75V7.375H16.25V16.125Z" fill="#121216"/>
</svg>