<svg width="20" height="20" viewBox="0 0 20 20" fill="none" xmlns="http://www.w3.org/2000/svg">
    <path d="M16.9008 6.90086L10.6508 13.1509C10.5928 13.209 10.5239 13.2551 10.448 13.2865C10.3721 13.318 10.2908 13.3342 10.2087 13.3342C10.1265 13.3342 10.0452 13.318 9.96932 13.2865C9.89345 13.2551 9.82452 13.209 9.76647 13.1509L3.51647 6.90086C3.3992 6.78359 3.33331 6.62453 3.33331 6.45868C3.33331 6.29282 3.3992 6.13376 3.51647 6.01649C3.63375 5.89921 3.79281 5.83333 3.95866 5.83333C4.12451 5.83333 4.28357 5.89921 4.40085 6.01649L10.2087 11.8251L16.0165 6.01649C16.0745 5.95842 16.1435 5.91236 16.2194 5.88093C16.2952 5.8495 16.3765 5.83333 16.4587 5.83333C16.5408 5.83333 16.6221 5.8495 16.698 5.88093C16.7738 5.91236 16.8428 5.95842 16.9008 6.01649C16.9589 6.07456 17.005 6.14349 17.0364 6.21937C17.0678 6.29524 17.084 6.37655 17.084 6.45868C17.084 6.5408 17.0678 6.62212 17.0364 6.69799C17.005 6.77386 16.9589 6.84279 16.9008 6.90086Z" fill="#727279"/>
</svg>
